<svg xmlns="http://www.w3.org/2000/svg" xmlns:xlink="http://www.w3.org/1999/xlink" width="1080" zoomAndPan="magnify" viewBox="0 0 810 809.999993" height="1080" preserveAspectRatio="xMidYMid meet" version="1.0"><defs><clipPath id="be466a6fdd"><path d="M 0.078125 0 L 810 0 L 810 810 L 0.078125 810 Z M 0.078125 0 " clip-rule="nonzero"/></clipPath></defs><g clip-path="url(#be466a6fdd)"><path fill="#ffffff" d="M 378.519531 0.632812 C 376.777344 0.792969 371.234375 1.347656 366.25 1.742188 C 251.226562 12.113281 143.484375 74.175781 75.246094 169.566406 C 37.25 222.605469 12.945312 282.769531 3.761719 346.496094 C 0.519531 368.738281 0.121094 375.308594 0.121094 405.46875 C 0.121094 435.632812 0.519531 442.203125 3.761719 464.445312 C 25.769531 616.515625 133.984375 744.285156 280.753906 791.625 C 307.035156 800.09375 334.742188 805.875 366.25 809.355469 C 378.519531 810.703125 431.558594 810.703125 443.828125 809.355469 C 498.210938 803.339844 544.285156 789.882812 589.722656 766.6875 C 596.691406 763.125 598.035156 762.175781 597.085938 761.386719 C 596.453125 760.910156 566.765625 721.089844 531.144531 672.960938 L 466.390625 585.484375 L 385.246094 465.394531 C 340.601562 399.375 303.867188 345.386719 303.550781 345.386719 C 303.234375 345.308594 302.917969 398.664062 302.761719 463.8125 C 302.523438 577.886719 302.445312 582.476562 301.019531 585.167969 C 298.960938 589.046875 297.378906 590.632812 294.050781 592.371094 C 291.519531 593.640625 289.300781 593.878906 277.347656 593.878906 L 263.652344 593.878906 L 260.011719 591.582031 C 257.636719 590.078125 255.894531 588.097656 254.707031 585.800781 L 253.046875 582.238281 L 253.203125 423.519531 L 253.441406 264.71875 L 255.894531 261.632812 C 257.164062 259.96875 259.855469 257.832031 261.753906 256.804688 C 265 255.21875 266.265625 255.0625 279.960938 255.0625 C 296.109375 255.0625 298.800781 255.695312 302.996094 260.285156 C 304.183594 261.554688 348.121094 327.734375 400.683594 407.449219 C 453.246094 487.164062 525.128906 596.015625 560.433594 649.449219 L 624.554688 746.582031 L 627.800781 744.445312 C 656.539062 725.761719 686.9375 699.164062 711 671.457031 C 762.21875 612.636719 795.230469 540.917969 806.3125 464.445312 C 809.558594 442.203125 809.953125 435.632812 809.953125 405.46875 C 809.953125 375.308594 809.558594 368.738281 806.3125 346.496094 C 784.304688 194.421875 676.089844 66.65625 529.324219 19.316406 C 503.4375 10.925781 475.886719 5.144531 445.015625 1.664062 C 437.414062 0.871094 385.089844 0 378.519531 0.632812 Z M 544.285156 245.5625 C 548.085938 247.460938 551.171875 251.101562 552.28125 254.902344 C 552.914062 256.960938 553.070312 300.976562 552.914062 400.167969 L 552.675781 542.5 L 527.582031 504.027344 L 502.40625 465.554688 L 502.40625 362.089844 C 502.40625 295.195312 502.726562 257.59375 503.199219 255.773438 C 504.464844 251.339844 507.238281 247.859375 511.035156 245.800781 C 514.28125 244.136719 515.46875 243.980469 527.898438 243.980469 C 539.613281 243.980469 541.671875 244.136719 544.285156 245.5625 Z M 544.285156 245.5625 " fill-opacity="1" fill-rule="nonzero"/></g><path fill="#ffffff" d="M 620.597656 748.324219 C 617.828125 750.066406 616.957031 751.253906 619.410156 749.90625 C 621.152344 748.878906 624 746.738281 623.527344 746.660156 C 623.289062 746.660156 621.941406 747.453125 620.597656 748.324219 Z M 615.136719 751.886719 C 613.710938 752.992188 613.710938 753.074219 615.453125 752.203125 C 616.402344 751.726562 617.195312 751.171875 617.195312 751.015625 C 617.195312 750.382812 616.796875 750.539062 615.136719 751.886719 Z M 611.175781 754.261719 C 609.753906 755.367188 609.753906 755.449219 611.492188 754.578125 C 612.445312 754.101562 613.234375 753.546875 613.234375 753.390625 C 613.234375 752.757812 612.839844 752.914062 611.175781 754.261719 Z M 607.21875 756.636719 C 605.792969 757.742188 605.792969 757.824219 607.535156 756.953125 C 608.484375 756.476562 609.277344 755.921875 609.277344 755.765625 C 609.277344 755.132812 608.882812 755.289062 607.21875 756.636719 Z M 601.203125 759.800781 C 598.195312 761.386719 598.351562 762.019531 601.359375 760.515625 C 602.707031 759.800781 603.734375 759.089844 603.734375 758.929688 C 603.734375 758.375 603.65625 758.457031 601.203125 759.800781 Z M 601.203125 759.800781 " fill-opacity="1" fill-rule="nonzero"/></svg>